<?xml version="1.0"?>
<svg xmlns="http://www.w3.org/2000/svg" xmlns:xlink="http://www.w3.org/1999/xlink" version="1.1" xml:space="preserve">
  <defs>

    <symbol id="loader" width="100%" height="100%" viewBox="22 22 44 44">
      <circle cx="44" cy="44" r="20.2" fill="transparent" stroke="currentColor" stroke-width="4" />
    </symbol>

    <symbol id="checkbox" width="100%" height="100%" viewBox="5992.41357421875 5220.8662109375 23.44384765625 23.44384765625">
      <path fill="currentColor" stroke="none" fill-opacity="1" stroke-width="1" stroke-opacity="1" font-size-adjust="none" id="tSvg6bd8b8afbc" title="Path 2" d="M 5998.34707453125 5224.55859125 C 5997.91676453125 5222.30304125 6000.84279453125 5221.02897425 6002.20084453125 5222.88056125C 6002.20084453125 5222.88056125 6002.20084453125 5222.88056125 6002.20084453125 5222.88056125C 6003.08104453125 5224.08058125 6004.88374453125 5224.04818125 6005.72024453125 5222.81732125C 6005.72024453125 5222.81732125 6005.72024453125 5222.81732125 6005.72024453125 5222.81732125C 6007.01084453125 5220.91812925 6009.98084453125 5222.08624125 6009.63184453125 5224.35580125C 6009.63184453125 5224.35580125 6009.63184453125 5224.35580125 6009.63184453125 5224.35580125C 6009.40564453125 5225.82670125 6010.70324453125 5227.07854125 6012.16514453125 5226.79966125C 6012.16514453125 5226.79966125 6012.16514453125 5226.79966125 6012.16514453125 5226.79966125C 6014.42064453125 5226.36935125 6015.69474453125 5229.29538125 6013.84314453125 5230.65348125C 6013.84314453125 5230.65348125 6013.84314453125 5230.65348125 6013.84314453125 5230.65348125C 6012.64314453125 5231.53358125 6012.67554453125 5233.33638125 6013.90634453125 5234.17278125C 6013.90634453125 5234.17278125 6013.90634453125 5234.17278125 6013.90634453125 5234.17278125C 6015.80554453125 5235.46348125 6014.63744453125 5238.43338125 6012.36794453125 5238.08438125C 6012.36794453125 5238.08438125 6012.36794453125 5238.08438125 6012.36794453125 5238.08438125C 6010.89704453125 5237.85818125 6009.64514453125 5239.15588125 6009.92404453125 5240.61768125C 6009.92404453125 5240.61768125 6009.92404453125 5240.61768125 6009.92404453125 5240.61768125C 6010.35434453125 5242.87328125 6007.42834453125 5244.14728125 6006.07024453125 5242.29578125C 6006.07024453125 5242.29578125 6006.07024453125 5242.29578125 6006.07024453125 5242.29578125C 6005.19014453125 5241.09568125 6003.38734453125 5241.12808125 6002.55084453125 5242.35898125C 6002.55084453125 5242.35898125 6002.55084453125 5242.35898125 6002.55084453125 5242.35898125C 6001.26024453125 5244.25818125 5998.29032453125 5243.09008125 5998.63931453125 5240.82048125C 5998.63931453125 5240.82048125 5998.63931453125 5240.82048125 5998.63931453125 5240.82048125C 5998.86549453125 5239.34958125 5997.56783453125 5238.09778125 5996.10600453125 5238.37668125C 5996.10600453125 5238.37668125 5996.10600453125 5238.37668125 5996.10600453125 5238.37668125C 5993.85045453125 5238.80698125 5992.57638653125 5235.88088125 5994.42797453125 5234.52288125C 5994.42797453125 5234.52288125 5994.42797453125 5234.52288125 5994.42797453125 5234.52288125C 5995.62799453125 5233.64268125 5995.59559453125 5231.83998125 5994.36473453125 5231.00348125C 5994.36473453125 5231.00348125 5994.36473453125 5231.00348125 5994.36473453125 5231.00348125C 5992.46554253125 5229.71283125 5993.63365453125 5226.74291125 5995.90321453125 5227.09190125C 5995.90321453125 5227.09190125 5995.90321453125 5227.09190125 5995.90321453125 5227.09190125C 5997.37411453125 5227.31808125 5998.62595453125 5226.02042125 5998.34707453125 5224.55859125C 5998.34707453125 5224.55859125 5998.34707453125 5224.55859125 5998.34707453125 5224.55859125Z"></path>
      <path fill="none" stroke="white" fill-opacity="1" stroke-width="1.38889" stroke-opacity="1" font-size-adjust="none" stroke-linecap="round" id="tSvgcf398573d2" title="Path 3" d="M 5999.99401453125 5234.00208125 C 6000.688457864583 5234.6965479166665 6001.382901197917 5235.391014583333 6002.07734453125 5236.08548125C 6004.160677864584 5234.0021379166665 6006.244011197917 5231.918794583334 6008.32734453125 5229.83545125"></path>
    </symbol>

  </defs>
</svg>